<?xml version="1.0" encoding="UTF-8" standalone="no"?>
<!-- Created with Inkscape (http://www.inkscape.org/) -->

<svg
   xmlns:dc="http://purl.org/dc/elements/1.1/"
   xmlns:cc="http://creativecommons.org/ns#"
   xmlns:rdf="http://www.w3.org/1999/02/22-rdf-syntax-ns#"
   xmlns:svg="http://www.w3.org/2000/svg"
   xmlns="http://www.w3.org/2000/svg"
   version="1.1"
   width="177.71567"
   height="177.71468"
   id="svg3173"
   xml:space="preserve"><metadata
     id="metadata3179"><rdf:RDF><cc:Work
         rdf:about=""><dc:format>image/svg+xml</dc:format><dc:type
           rdf:resource="http://purl.org/dc/dcmitype/StillImage" /><dc:title></dc:title></cc:Work></rdf:RDF></metadata><defs
     id="defs3177"><clipPath
       id="clipPath3187"><path
         d="m 17.008,17.008 561.26,0 0,807.84 -561.26,0 0,-807.84 z"
         id="path3189" /></clipPath><clipPath
       id="clipPath3205"><path
         d="m 0,0 595.276,0 0,841.89 L 0,841.89 0,0 z"
         id="path3207" /></clipPath></defs><g
     transform="matrix(1.25,0,0,-1.25,-184.02811,688.85243)"
     id="g3181"><g
       transform="matrix(0.78980353,0,0,0.78980353,289.39502,479.99568)"
       id="g3209"
       style="fill:#e51b15;fill-opacity:1"><path
         d="m 0,0 c 0,49.629 -40.376,90.005 -90.005,90.005 -49.629,0 -90.005,-40.376 -90.005,-90.005 0,-49.628 40.376,-90.004 90.005,-90.004 C -40.376,-90.004 0,-49.628 0,0 m -10,0 c 0,-44.114 -35.89,-80.004 -80.005,-80.004 -30.362,0 -56.828,17.002 -70.378,41.984 l 18.243,20.742 14.51,2.848 -8.098,-19.196 c -1.098,-2.601 0.122,-5.601 2.725,-6.699 2.601,-1.098 5.601,0.122 6.699,2.724 l 28.477,67.503 c 1.097,2.602 -0.122,5.602 -2.724,6.7 -1.63,0.687 -3.414,0.465 -4.791,-0.435 -0.347,-0.208 -0.669,-0.472 -0.949,-0.795 l -42.81,-48.675 -11.481,-2.254 c -1.419,-0.285 -2.339,-1.668 -2.053,-3.085 0.285,-1.419 1.667,-2.338 3.085,-2.053 l 4.771,0.937 -9.267,-10.538 c -3.84,9.35 -5.963,19.579 -5.963,30.296 0,44.115 35.89,80.005 80.004,80.005 C -45.89,80.005 -10,44.115 -10,0 m -106.563,11.804 -8.61,-20.41 -11.289,-2.216 19.899,22.626 z m 97.128,5.919 c -2.641,2.162 -6.162,2.831 -10.185,1.935 l -0.071,-0.017 c -8.38,-1.866 -18.487,-11.433 -20.712,-25.484 -0.281,-1.773 -0.37,-3.481 -0.275,-5.087 0.024,-0.409 0.063,-0.808 0.11,-1.203 -2.668,-3.438 -5.597,-5.919 -6.269,-6.365 -3.317,-2.203 -4.802,2.313 -6.403,5.988 l -3.254,7.821 c 10.398,8.846 19.066,16.232 19.066,16.232 1.1,0.939 1.229,2.592 0.289,3.693 -0.939,1.103 -2.592,1.231 -3.692,0.292 L -68.615,0.448 -52.377,38.94 c 1.097,2.601 -0.123,5.601 -2.725,6.699 -2.602,1.098 -5.601,-0.122 -6.699,-2.724 l -24.096,-57.123 -7.045,-5.973 c -2.815,-2.275 -5.51,-4.144 -6.475,-3.619 -1.512,0.823 -0.673,2.615 0.035,4.284 l 22.684,53.774 c 1.097,2.602 -0.123,5.603 -2.726,6.701 -2.602,1.096 -5.599,-0.123 -6.696,-2.725 l -26.617,-63.093 c -0.457,-1.081 -0.714,-2.071 -0.714,-3.222 0,-2.603 1.283,-4.9 3.104,-6.266 1.116,-0.843 2.431,-1.333 3.783,-1.333 1.167,0 3.236,0.087 5.049,1.362 0.428,0.3 4.889,4.055 11.082,9.3 -0.8,-2.495 0.421,-5.231 2.879,-6.269 2.602,-1.099 5.601,0.122 6.7,2.723 l 6.206,14.713 3.194,-7.82 c 1.514,-3.541 3.923,-6.507 9.368,-5.438 4.553,0.894 9.534,5.869 12.921,9.999 0.71,-1.457 1.65,-2.696 2.812,-3.649 1.871,-1.53 5.248,-3.099 10.722,-1.88 8.152,1.818 17.991,10.488 20.328,25.231 1.047,6.609 -0.46,12.124 -4.132,15.131 m -8.479,-19.346 c -3.806,-10.34 -7.276,-15.684 -10.608,-16.338 -0.854,-0.166 -1.192,0.196 -1.372,0.482 -0.432,0.686 -0.609,2.07 -0.432,4.101 0.252,2.891 1.222,7.092 3.195,12.455 3.581,9.729 8.007,15.321 10.53,15.815 0.003,0.001 0.059,0.012 0.059,0.012 1.002,0.196 1.37,-0.181 1.559,-0.482 0.439,-0.699 1.53,-3.925 -2.931,-16.045"
         id="path3211"
         style="fill:#e51b15;fill-opacity:1;fill-rule:nonzero;stroke:none" /></g></g></svg>